<svg version="1.2" xmlns="http://www.w3.org/2000/svg" viewBox="0 0 512 512" width="512" height="512">
	<title>addCart-svg</title>
	<style>
		.s0 { fill: #ffffff } 
	</style>
	<g id="Layer">
		<g id="Layer">
			<path id="Layer" class="s0" d="m408.5 95h31.2v20.8h-31.2v31.2h-20.8v-31.2h-31.1v-20.8h31.1v-31.1h20.8z"/>
			<path id="Layer" class="s0" d="m178.8 318.5h260.8v20.9h-268.2c-5.2 0-9.4-3.1-10.4-8.3l-68.8-278.3h-76.2v-20.9h84.6c5.2 0 9.4 3.1 10.4 8.3z"/>
			<path id="Layer" class="s0" d="m171.5 371.7h237.9v20.9h-237.9z"/>
			<path id="Layer" fill-rule="evenodd" class="s0" d="m437.6 460.4c0 21.9-17.7 40.7-40.7 40.7-23 0-40.7-18.8-40.7-40.7 0-21.9 18.8-40.7 40.7-40.7 21.9 0 40.7 18.8 40.7 40.7zm-20.9-0.1c0-10.4-8.3-19.8-19.8-19.8-11.5 0-19.8 9.4-19.8 19.8 0 10.4 9.4 19.8 19.8 19.8 10.4 0 19.8-9.3 19.8-19.8z"/>
			<path id="Layer" fill-rule="evenodd" class="s0" d="m239.3 460.4c0 21.9-18.8 40.7-40.7 40.7-23 0-40.7-18.8-40.7-40.7 0-21.9 18.8-40.7 40.7-40.7 21.9 0 40.7 18.8 40.7 40.7zm-20.9-0.1c0-10.4-9.4-19.8-19.8-19.8-11.5 0-19.8 9.4-19.8 19.8 0 10.4 9.4 19.8 19.8 19.8 10.4 0 19.8-9.3 19.8-19.8z"/>
			<path id="Shape 1" class="s0" d="m115 97h202v19h-202z"/>
			<path id="Shape 2" class="s0" d="m439.3 163.3l25.4 2.3-29.7 174.7-25.3-0.7z"/>
		</g>
	</g>
</svg>