<svg xmlns="http://www.w3.org/2000/svg" width="90.927" height="89.619" viewBox="0 0 90.927 89.619">
  <g id="Grupo_13263" data-name="Grupo 13263" transform="translate(0)">
    <path id="Trazado_1484" data-name="Trazado 1484" d="M3.271,0H87.656a3.271,3.271,0,0,1,3.271,3.271V86.348a3.271,3.271,0,0,1-3.271,3.271H3.271A3.271,3.271,0,0,1,0,86.348V3.271A3.271,3.271,0,0,1,3.271,0Z" transform="translate(0)" fill="#010101"/>
    <g id="Grupo_13203" data-name="Grupo 13203" transform="translate(29.317 25.851)">
      <text id="PERÚ" transform="translate(0 35.691)" fill="#fff" font-size="3" font-family="HelveticaNowText-ExtraBold, Helvetica Now Text" font-weight="800"><tspan x="0" y="0" letter-spacing="1.05em">P</tspan><tspan y="0" letter-spacing="1.064em">E</tspan><tspan y="0" letter-spacing="1.052em">R</tspan><tspan y="0">Ú</tspan></text>
      <path id="Trazado_4" data-name="Trazado 4" d="M3129.5,375.132c-5.161-.015-10.321,0-15.482,0h-2.4v3.6h1.773c5.318,0,10.638.029,15.956-.011a11.989,11.989,0,0,1,9,3.524,11.557,11.557,0,0,1,2.8,12.68c-1.538,4.361-4.761,7.255-9.387,7.621-5.388.426-10.827.193-16.245.24-.091,0-.184-.086-.35-.17V385.679c4.772,0,9.448,0,14.122,0a10.053,10.053,0,0,1,1.574.062,5.156,5.156,0,0,1,4.267,4.973c.125,2.212-1.377,4.64-3.645,4.878a92.821,92.821,0,0,1-9.512.081v-2h-3.41v5.8c3.926,0,7.71.026,11.494-.006a8.8,8.8,0,0,0,8.689-8.49,8.646,8.646,0,0,0-8-8.814c-6.3-.232-12.624-.059-19.074-.059V406.43h1.543c5.9-.009,11.809.235,17.689-.089a15.391,15.391,0,0,0,14.54-14.269,15.625,15.625,0,0,0-15.937-16.939" transform="translate(-3111.612 -375.125)" fill="#fff"/>
      <rect id="Rectángulo_2" data-name="Rectángulo 2" width="3.41" height="2.697" transform="translate(6.939 13.377)" fill="#fff"/>
    </g>
  </g>
</svg>
