<svg xmlns="http://www.w3.org/2000/svg" width="91" height="91" viewBox="0 0 91 91">
  <g id="Grupo_13268" data-name="Grupo 13268" transform="translate(0 -0.25)">
    <circle id="Elipse_1" data-name="Elipse 1" cx="45.5" cy="45.5" r="45.5" transform="translate(0 0.25)" fill="#010101"/>
    <path id="Icon_ionic-md-person" data-name="Icon ionic-md-person" d="M37.863,37.705a16.6,16.6,0,1,0-16.6-16.6A16.651,16.651,0,0,0,37.863,37.705Zm0,8.3c-11,0-33.421,13.685-33.421,13.685A44.98,44.98,0,0,0,18.212,70.007,47.013,47.013,0,0,0,38.157,74.67,44.476,44.476,0,0,0,59.3,69.207,41.577,41.577,0,0,0,73.4,57.166S48.862,46.007,37.863,46.007Z" transform="translate(7.378 15.885)" fill="#f2f2f2"/>
  </g>
</svg>
